# This file uses centimeters as units for non-parametric coordinates.

mtllib Walls.mtl
g default
v 146.122744 -147.022846 -147.022846
v 146.122744 -147.022846 147.022846
v 146.122744 147.022846 -147.022846
v 146.122744 147.022846 147.022846
v -147.022846 -147.022846 -145.899657
v 147.022846 -147.022846 -145.899657
v -147.022846 147.022846 -145.899657
v 147.022846 147.022846 -145.899657
v -146.568916 -147.022846 147.022846
v -146.568916 -147.022846 -147.022846
v -146.568916 147.022846 147.022846
v -146.568916 147.022846 -147.022846
vt 0.000000 0.000000
vt 1.000000 0.000000
vt 0.000000 1.000000
vt 1.000000 1.000000
vt 0.000000 0.000000
vt 1.000000 0.000000
vt 1.000000 1.000000
vt 0.000000 1.000000
vt 0.000000 0.000000
vt 1.000000 0.000000
vt 1.000000 1.000000
vt 0.000000 1.000000
vn -1.000000 0.000000 0.000000
vn -1.000000 0.000000 0.000000
vn -1.000000 0.000000 0.000000
vn -1.000000 0.000000 0.000000
vn 0.000000 0.000000 1.000000
vn 0.000000 0.000000 1.000000
vn 0.000000 0.000000 1.000000
vn 0.000000 0.000000 1.000000
vn 1.000000 0.000000 0.000000
vn 1.000000 0.000000 0.000000
vn 1.000000 0.000000 0.000000
vn 1.000000 0.000000 0.000000
s off
g pPlane4
usemtl initialShadingGroup
f 1/1/1 2/2/2 4/4/3 3/3/4
f 5/5/5 6/6/6 8/7/7 7/8/8
f 9/9/9 10/10/10 12/11/11 11/12/12
