# This file uses centimeters as units for non-parametric coordinates.

mtllib Walls2.mtl
g default
v 147.022842 -147.022842 -145.899658
v 146.122742 -147.022842 147.022842
v 147.022842 147.022842 -145.899658
v 146.122742 147.022842 147.022842
v -147.022842 -147.022842 -145.899658
v -147.022842 147.022842 -145.899658
v -146.568909 -147.022842 147.022842
v -146.568909 147.022842 147.022842
v -146.568909 147.022842 147.022827
vt 0.496676 0.332995
vt 0.757645 0.332995
vt 0.757645 0.667004
vt 0.496676 0.667004
vt 0.249625 0.333809
vt 0.500219 0.333463
vt 0.500219 0.667006
vt 0.249625 0.666891
vt 0.024831 0.334547
vt 0.250247 0.334547
vt 0.250247 0.665453
vt 0.024831 0.665453
vt 0.251797 0.989985
vt 0.501419 0.989985
vt 0.500655 0.667856
vt 0.252182 0.667856
vn -1.000000 0.000000 0.000000
vn -1.000000 0.000000 0.000000
vn -1.000000 0.000000 0.000000
vn -1.000000 0.000000 0.000000
vn 0.000000 0.000000 1.000000
vn 0.000000 0.000000 1.000000
vn 0.000000 0.000000 1.000000
vn 0.000000 0.000000 1.000000
vn 1.000000 0.000000 0.000000
vn 1.000000 0.000000 0.000000
vn 1.000000 0.000000 0.000000
vn 1.000000 0.000000 0.000000
vn 0.000000 -1.000000 0.000000
vn 0.000000 -1.000000 0.000000
vn 0.000000 -1.000000 0.000000
vn 0.000000 -1.000000 0.000000
s off
g Walls:pPlane4
usemtl Walls:initialShadingGroup
f 1/1/1 2/2/2 4/3/3 3/4/4
f 5/5/5 1/6/6 3/7/7 6/8/8
f 7/9/9 5/10/10 6/11/11 8/12/12
f 6/13/13 3/14/14 4/15/15 9/16/16
